<mxfile host="app.diagrams.net" agent="Mozilla/5.0 (Windows NT 10.0; Win64; x64) AppleWebKit/537.36 (KHTML, like Gecko) Chrome/135.0.0.0 Safari/537.36" version="26.2.13">
  <diagram name="Page-1" id="5f0bae14-7c28-e335-631c-24af17079c00">
    <mxGraphModel dx="1740" dy="935" grid="1" gridSize="10" guides="1" tooltips="1" connect="1" arrows="1" fold="1" page="1" pageScale="1" pageWidth="1100" pageHeight="850" background="none" math="0" shadow="0">
      <root>
        <mxCell id="0" />
        <mxCell id="1" parent="0" />
        <mxCell id="39150e848f15840c-1" value="&amp;lt;&amp;lt;device&amp;gt;&amp;gt;" style="verticalAlign=top;align=left;spacingTop=8;spacingLeft=2;spacingRight=12;shape=cube;size=10;direction=south;fontStyle=4;html=1;rounded=0;shadow=0;comic=0;labelBackgroundColor=none;strokeWidth=1;fontFamily=Verdana;fontSize=12" parent="1" vertex="1">
          <mxGeometry x="120" y="70" width="330" height="220" as="geometry" />
        </mxCell>
        <mxCell id="39150e848f15840c-2" value="&amp;lt;&amp;lt;device&amp;gt;&amp;gt;" style="verticalAlign=top;align=left;spacingTop=8;spacingLeft=2;spacingRight=12;shape=cube;size=10;direction=south;fontStyle=4;html=1;rounded=0;shadow=0;comic=0;labelBackgroundColor=none;strokeWidth=1;fontFamily=Verdana;fontSize=12" parent="1" vertex="1">
          <mxGeometry x="620" y="60" width="330" height="220" as="geometry" />
        </mxCell>
        <mxCell id="39150e848f15840c-3" value="&amp;lt;&amp;lt;server&amp;gt;&amp;gt;" style="verticalAlign=top;align=left;spacingTop=8;spacingLeft=2;spacingRight=12;shape=cube;size=10;direction=south;fontStyle=4;html=1;rounded=0;shadow=0;comic=0;labelBackgroundColor=none;strokeWidth=1;fontFamily=Verdana;fontSize=12" parent="1" vertex="1">
          <mxGeometry x="560" y="640" width="450" height="290" as="geometry" />
        </mxCell>
        <mxCell id="39150e848f15840c-5" value="Browser" style="shape=component;align=left;spacingLeft=36;rounded=0;shadow=0;comic=0;labelBackgroundColor=none;strokeWidth=1;fontFamily=Verdana;fontSize=12;html=1;" parent="1" vertex="1">
          <mxGeometry x="180" y="140" width="210" height="100" as="geometry" />
        </mxCell>
        <mxCell id="39150e848f15840c-7" value="APK" style="shape=component;align=left;spacingLeft=36;rounded=0;shadow=0;comic=0;labelBackgroundColor=none;strokeWidth=1;fontFamily=Verdana;fontSize=12;html=1;" parent="1" vertex="1">
          <mxGeometry x="660" y="122.5" width="240" height="115" as="geometry" />
        </mxCell>
        <mxCell id="39150e848f15840c-17" style="edgeStyle=orthogonalEdgeStyle;rounded=0;html=1;labelBackgroundColor=none;startArrow=none;startFill=0;startSize=8;endArrow=none;endFill=0;endSize=16;fontFamily=Verdana;fontSize=12;entryX=0;entryY=0;entryDx=220;entryDy=170;entryPerimeter=0;exitX=0.015;exitY=0.511;exitDx=0;exitDy=0;exitPerimeter=0;" parent="1" source="39150e848f15840c-3" target="39150e848f15840c-2" edge="1">
          <mxGeometry relative="1" as="geometry">
            <Array as="points" />
            <mxPoint x="840" y="590" as="sourcePoint" />
          </mxGeometry>
        </mxCell>
        <mxCell id="39150e848f15840c-18" style="edgeStyle=orthogonalEdgeStyle;rounded=0;html=1;labelBackgroundColor=none;startArrow=none;startFill=0;startSize=8;endArrow=none;endFill=0;endSize=16;fontFamily=Verdana;fontSize=12;exitX=0;exitY=0;exitDx=0;exitDy=160;exitPerimeter=0;entryX=0;entryY=0;entryDx=220;entryDy=170;entryPerimeter=0;" parent="1" source="49Xdppyjpskcvu2fkDK_-1" target="39150e848f15840c-1" edge="1">
          <mxGeometry relative="1" as="geometry">
            <Array as="points">
              <mxPoint x="280" y="350" />
              <mxPoint x="280" y="350" />
            </Array>
          </mxGeometry>
        </mxCell>
        <mxCell id="DSP8975JUPTh_UEnXW0y-2" value="&lt;font style=&quot;font-size: 14px;&quot;&gt;Desktop&lt;/font&gt;" style="text;html=1;align=center;verticalAlign=middle;whiteSpace=wrap;rounded=0;" parent="1" vertex="1">
          <mxGeometry x="255" y="80" width="60" height="30" as="geometry" />
        </mxCell>
        <mxCell id="DSP8975JUPTh_UEnXW0y-3" value="&lt;font style=&quot;font-size: 14px;&quot;&gt;Android/IOS Device&lt;/font&gt;" style="text;html=1;align=center;verticalAlign=middle;whiteSpace=wrap;rounded=0;" parent="1" vertex="1">
          <mxGeometry x="760" y="76" width="60" height="30" as="geometry" />
        </mxCell>
        <mxCell id="DSP8975JUPTh_UEnXW0y-5" value="&amp;lt;&amp;lt;TCP/IP&amp;gt;&amp;gt;" style="text;html=1;align=center;verticalAlign=middle;whiteSpace=wrap;rounded=0;" parent="1" vertex="1">
          <mxGeometry x="300" y="380" width="60" height="30" as="geometry" />
        </mxCell>
        <mxCell id="DSP8975JUPTh_UEnXW0y-6" value="&amp;lt;&amp;lt;TCP/IP&amp;gt;&amp;gt;" style="text;html=1;align=center;verticalAlign=middle;whiteSpace=wrap;rounded=0;" parent="1" vertex="1">
          <mxGeometry x="800" y="380" width="60" height="30" as="geometry" />
        </mxCell>
        <mxCell id="DSP8975JUPTh_UEnXW0y-8" value="&lt;font style=&quot;font-size: 14px;&quot;&gt;Supabase&lt;/font&gt;" style="text;html=1;align=center;verticalAlign=middle;whiteSpace=wrap;rounded=0;" parent="1" vertex="1">
          <mxGeometry x="710" y="670" width="140" height="30" as="geometry" />
        </mxCell>
        <mxCell id="DSP8975JUPTh_UEnXW0y-10" value="S3 Buckets" style="shape=component;align=left;spacingLeft=36;rounded=0;shadow=0;comic=0;labelBackgroundColor=none;strokeWidth=1;fontFamily=Verdana;fontSize=12;html=1;" parent="1" vertex="1">
          <mxGeometry x="570" y="740" width="190" height="110" as="geometry" />
        </mxCell>
        <mxCell id="DSP8975JUPTh_UEnXW0y-11" value="PostgreSQL" style="shape=component;align=left;spacingLeft=36;rounded=0;shadow=0;comic=0;labelBackgroundColor=none;strokeWidth=1;fontFamily=Verdana;fontSize=12;html=1;" parent="1" vertex="1">
          <mxGeometry x="780" y="740" width="190" height="110" as="geometry" />
        </mxCell>
        <mxCell id="49Xdppyjpskcvu2fkDK_-1" value="&amp;lt;&amp;lt;server&amp;gt;&amp;gt;" style="verticalAlign=top;align=left;spacingTop=8;spacingLeft=2;spacingRight=12;shape=cube;size=10;direction=south;fontStyle=4;html=1;rounded=0;shadow=0;comic=0;labelBackgroundColor=none;strokeWidth=1;fontFamily=Verdana;fontSize=12" vertex="1" parent="1">
          <mxGeometry x="110" y="520" width="330" height="220" as="geometry" />
        </mxCell>
        <mxCell id="49Xdppyjpskcvu2fkDK_-2" value="Global CDN NextJS Server" style="shape=component;align=left;spacingLeft=36;rounded=0;shadow=0;comic=0;labelBackgroundColor=none;strokeWidth=1;fontFamily=Verdana;fontSize=12;html=1;" vertex="1" parent="1">
          <mxGeometry x="170" y="600" width="210" height="100" as="geometry" />
        </mxCell>
        <mxCell id="49Xdppyjpskcvu2fkDK_-3" value="&lt;span style=&quot;font-size: 14px;&quot;&gt;Vercel&lt;/span&gt;" style="text;html=1;align=center;verticalAlign=middle;whiteSpace=wrap;rounded=0;" vertex="1" parent="1">
          <mxGeometry x="217.5" y="550" width="115" height="30" as="geometry" />
        </mxCell>
        <mxCell id="49Xdppyjpskcvu2fkDK_-4" style="edgeStyle=orthogonalEdgeStyle;rounded=0;html=1;labelBackgroundColor=none;startArrow=none;startFill=0;startSize=8;endArrow=none;endFill=0;endSize=16;fontFamily=Verdana;fontSize=12;exitX=0.771;exitY=1.001;exitDx=0;exitDy=0;exitPerimeter=0;entryX=0;entryY=0;entryDx=220;entryDy=170;entryPerimeter=0;" edge="1" parent="1" source="39150e848f15840c-3" target="49Xdppyjpskcvu2fkDK_-1">
          <mxGeometry relative="1" as="geometry">
            <Array as="points">
              <mxPoint x="270" y="864" />
            </Array>
            <mxPoint x="315" y="990" as="sourcePoint" />
            <mxPoint x="315" y="760" as="targetPoint" />
          </mxGeometry>
        </mxCell>
        <mxCell id="49Xdppyjpskcvu2fkDK_-5" value="&amp;lt;&amp;lt;TCP/IP&amp;gt;&amp;gt;" style="text;html=1;align=center;verticalAlign=middle;whiteSpace=wrap;rounded=0;" vertex="1" parent="1">
          <mxGeometry x="290" y="820" width="60" height="30" as="geometry" />
        </mxCell>
      </root>
    </mxGraphModel>
  </diagram>
</mxfile>
